<svg aria-hidden="true" style="position: absolute; width: 0; height: 0; overflow: hidden;" version="1.1"
    xmlns="http://www.w3.org/2000/svg" xmlns:xlink="http://www.w3.org/1999/xlink">
    <defs>
        <symbol id="icon-arrow" viewBox="0 0 24 24">
            <path
                d="M23 12c0-3.037-1.232-5.789-3.222-7.778s-4.741-3.222-7.778-3.222-5.789 1.232-7.778 3.222-3.222 4.741-3.222 7.778 1.232 5.789 3.222 7.778 4.741 3.222 7.778 3.222 5.789-1.232 7.778-3.222 3.222-4.741 3.222-7.778zM21 12c0 2.486-1.006 4.734-2.636 6.364s-3.878 2.636-6.364 2.636-4.734-1.006-6.364-2.636-2.636-3.878-2.636-6.364 1.006-4.734 2.636-6.364 3.878-2.636 6.364-2.636 4.734 1.006 6.364 2.636 2.636 3.878 2.636 6.364zM11 8v5.586l-2.293-2.293c-0.391-0.391-1.024-0.391-1.414 0s-0.391 1.024 0 1.414l4 4c0.092 0.092 0.202 0.166 0.324 0.217 0.245 0.101 0.521 0.101 0.766 0 0.118-0.049 0.228-0.121 0.324-0.217l4-4c0.391-0.391 0.391-1.024 0-1.414s-1.024-0.391-1.414 0l-2.293 2.293v-5.586c0-0.552-0.448-1-1-1s-1 0.448-1 1z">
            </path>
        </symbol>

        <symbol id="icon-arrow-up" viewBox="0 0 20 20">
            <path
                d="M9 3.828l-6.071 6.071-1.414-1.414 8.485-8.485 8.485 8.485-1.414 1.414-6.071-6.071v16.172h-2v-16.172z">
            </path>
        </symbol>

        <symbol id="icon-arrow-right" viewBox="0 0 20 20">
            <path d="M16.172 9l-6.071-6.071 1.414-1.414 8.485 8.485-8.485 8.485-1.414-1.414 6.071-6.071h-16.172v-2z">
            </path>
        </symbol>

        <symbol id="icon-arrow-left" viewBox="0 0 20 20">
            <path
                d="M3.828 9l6.071-6.071-1.414-1.414-8.485 8.485 8.485 8.485 1.414-1.414-6.071-6.071h16.172v-2h-16.172z">
            </path>
        </symbol>

        <symbol id="icon-build" viewBox="0 0 32 32">
            <path fill="#45525b" style="fill: var(--color1, #45525b)" d="M0 0h32v32h-32v-32z"></path>
            <path fill="#fff" style="fill: var(--color2, #fff)"
                d="M23.922 14.687l0.026-0.026c0 0 0-0.025 0.026-0.051 0-0.026 0-0.026 0.026-0.051v-0.026c0-0.025 0-0.025 0-0.051v-0.051c0 0 0 0 0-0.025-0.546-3.086-3.98-5.406-8.013-5.406s-7.467 2.321-7.987 5.381c0 0 0 0 0 0.026v0.051c0 0.025 0 0.025 0 0.051s0 0.025 0 0.051 0 0.025 0.026 0.051c0 0.026 0 0.026 0.026 0.051 0 0.026 0.026 0.026 0.026 0.051l0.026 0.026 0.026 0.025 0.026 0.026 0.026 0.025 0.026 0.026c0 0 0.026 0.025 0.052 0.025 0 0 0.026 0.026 0.052 0.026 0 0 0.026 0 0.052 0s0.026 0 0.052 0h1.665v7.166h-0.416c-0.26 0-0.468 0.204-0.468 0.459s0.208 0.459 0.468 0.459h4.423c0.26 0 0.468-0.204 0.468-0.459s-0.208-0.459-0.468-0.459h-0.39v-7.14h4.631v7.166h-0.442c-0.26 0-0.468 0.204-0.468 0.459s0.208 0.459 0.468 0.459h4.423c0.26 0 0.468-0.204 0.468-0.459s-0.208-0.459-0.468-0.459h-0.338v-7.166h1.561c0.026 0 0.052 0 0.078 0s0.026 0 0.052 0 0.026 0 0.052 0 0.026 0 0.052-0.025c0.026 0 0.026-0.026 0.052-0.026l0.026-0.025 0.026-0.026 0.026-0.025 0.026-0.026c0-0.051 0-0.051 0-0.076zM15.987 9.893c3.356 0 6.244 1.76 6.972 4.157h-13.945c0.728-2.423 3.616-4.157 6.972-4.157zM12.787 22.082h-1.821v-7.166h1.821v7.166zM21.060 22.082h-1.821v-7.166h1.821v7.166z">
            </path>
        </symbol>

        <symbol id="icon-design" viewBox="0 0 32 32">
            <path fill="#45525b" style="fill: var(--color1, #45525b)" d="M0 0h32v32h-32v-32z"></path>
            <path fill="#fff" style="fill: var(--color2, #fff)"
                d="M20.534 18.016c0-0.807-0.661-1.457-1.481-1.457h-0.185l0.608-4.865v-0.026c0.053-0.963-0.291-1.873-0.978-2.576s-1.586-1.093-2.565-1.093c-0.978 0-1.904 0.39-2.565 1.093-0.687 0.702-1.031 1.613-0.978 2.576v0.026l0.608 4.865h-0.185c-0.82 0-1.481 0.65-1.481 1.457v1.119c0 0.39 0.159 0.754 0.423 1.015v3.382c0 0.26 0.211 0.468 0.476 0.468s0.476-0.208 0.476-0.468v-2.94c0.053 0 0.106 0 0.132 0h1.11v2.211c0 0.26 0.212 0.468 0.476 0.468s0.476-0.208 0.476-0.468v-2.211h2.195v2.211c0 0.26 0.212 0.468 0.476 0.468s0.476-0.208 0.476-0.468v-2.211h1.11c0.053 0 0.106 0 0.132 0v2.94c0 0.26 0.212 0.468 0.476 0.468s0.476-0.208 0.476-0.468v-3.356c0.264-0.26 0.423-0.624 0.423-1.015v-1.145h-0.132zM13.263 11.59c-0.026-0.702 0.238-1.379 0.714-1.899 0.502-0.52 1.19-0.807 1.904-0.807 0.74 0 1.401 0.286 1.904 0.807s0.767 1.197 0.714 1.899l-0.608 4.943h-3.992l-0.635-4.943zM12.788 19.707c-0.106 0-0.212-0.026-0.291-0.078-0.026-0.026-0.053-0.026-0.079-0.052-0.132-0.104-0.212-0.26-0.212-0.416v-1.119c0-0.312 0.264-0.546 0.555-0.546h6.24c0.317 0 0.555 0.26 0.555 0.546v1.119c0 0.182-0.079 0.312-0.212 0.416-0.026 0.026-0.053 0.026-0.079 0.052-0.079 0.052-0.185 0.078-0.291 0.078h-6.187z">
            </path>
        </symbol>

        <symbol id="icon-location" viewBox="0 0 32 32">
            <path fill="#45525b" style="fill: var(--color1, #45525b)" d="M0 0h32v32h-32v-32z"></path>
            <path fill="#fff" style="fill: var(--color2, #fff)"
                d="M10.468 17.721c0.234-0.105 0.494 0 0.597 0.236s0 0.499-0.234 0.604c-1.195 0.525-1.896 1.182-1.896 1.813 0 1.287 2.883 2.732 7.065 2.732s7.091-1.445 7.065-2.732c0-0.631-0.675-1.287-1.844-1.787-0.234-0.105-0.338-0.368-0.234-0.604s0.364-0.342 0.597-0.236c1.558 0.683 2.416 1.603 2.416 2.627 0 2.049-3.429 3.626-8 3.626s-8-1.55-8-3.626c0-1.025 0.883-1.97 2.468-2.654zM16 8c2.883 0 5.221 2.365 5.221 5.281 0 2.181-2.727 5.596-4.364 7.435-0.208 0.263-0.519 0.394-0.857 0.394s-0.649-0.158-0.857-0.394c-1.636-1.839-4.364-5.255-4.364-7.435 0-2.916 2.338-5.281 5.221-5.281zM16 8.92c-2.364 0-4.312 1.944-4.312 4.361 0 1.34 1.558 3.888 4.13 6.805 0.052 0.079 0.156 0.079 0.182 0.079s0.104 0 0.182-0.079c2.597-2.916 4.13-5.465 4.13-6.805 0-2.417-1.948-4.361-4.312-4.361z">
            </path>
        </symbol>

        <symbol id="icon-arrow-down" viewBox="0 0 20 20">
            <path d="M9 16.172l-6.071-6.071-1.414 1.414 8.485 8.485 8.485-8.485-1.414-1.414-6.071 6.071v-16.172h-2z">
            </path>
        </symbol>

        <symbol id="icon-bath" viewBox="0 0 32 32">
            <path fill="#45525b" style="fill: var(--color1, #45525b)"
                d="M31.065 14.575h-24.935v-10.13c0-0.686 0.519-1.213 1.195-1.213h4v1.53c-1.091 0.158-1.974 1.108-1.974 2.269v2.321c0 0.528 0.416 0.95 0.935 0.95h3.688c0.519 0 0.935-0.422 0.935-0.95v-2.321c0-1.055-0.727-1.952-1.714-2.216v-2.532c0-0.528-0.416-0.95-0.935-0.95h-4.935c-1.662 0-3.013 1.372-3.013 3.060v10.13h-3.377c-0.519 0-0.935 0.422-0.935 0.95s0.416 0.95 0.935 0.95h1.247v4.221c0 3.113 2.286 5.698 5.247 6.12l-1.143 2.585c-0.208 0.475 0 1.002 0.468 1.213 0.104 0.053 0.26 0.106 0.364 0.106 0.364 0 0.675-0.211 0.831-0.528l1.455-3.271h14.286c0.104 0 0.208 0 0.364 0l1.455 3.271c0.156 0.369 0.468 0.528 0.831 0.528 0.104 0 0.26 0 0.364-0.106 0.468-0.211 0.675-0.739 0.468-1.213l-1.299-2.902c2.286-0.897 3.948-3.165 3.948-5.803v-4.221h1.247c0.52 0 0.935-0.422 0.935-0.95 0-0.475-0.416-0.897-0.935-0.897zM13.039 8.456h-1.87v-1.424c0-0.264 0.208-0.475 0.468-0.475h0.935c0.26 0 0.468 0.211 0.468 0.475v1.424zM28 20.643c0 2.374-1.922 4.379-4.312 4.379h-15.377c-2.338 0-4.312-1.952-4.312-4.379v-4.221h24v4.221z">
            </path>
        </symbol>

        <symbol id="icon-beds" viewBox="0 0 32 32">
            <path fill="#45525b" style="fill: var(--color1, #45525b)"
                d="M29.847 21.247c0 0 0-0.052 0 0 0-0.052 0-0.052 0-0.052l-4.335-9.61v-8.416c0-1.714-1.377-3.169-3.111-3.169h-12.853c-1.683 0-3.111 1.403-3.111 3.169v8.416l-4.335 9.61c-0.051 0.104-0.102 0.26-0.102 0.364v9.507c0 0.52 0.408 0.935 0.918 0.935s0.918-0.416 0.918-0.935v-2.753h24.328v2.753c0 0.52 0.408 0.935 0.918 0.935s0.918-0.416 0.918-0.935v-9.507c-0.102-0.104-0.102-0.208-0.153-0.312zM7.916 12.675h16.066l3.621 8h-23.257l3.57-8zM8.273 3.169c0-0.727 0.561-1.351 1.326-1.351h12.802c0.714 0 1.326 0.571 1.326 1.351v7.688h-15.454v-7.688zM3.836 26.493v-4h24.328v4h-24.328z">
            </path>
        </symbol>

        <symbol id="icon-room" viewBox="0 0 32 32">
            <path fill="#45525b" style="fill: var(--color1, #45525b)"
                d="M24.352 0c1.593 0 2.93 1.301 2.981 2.966v26.016c0 1.665-1.336 3.018-2.981 3.018h-16.704c-1.645 0-2.981-1.353-2.981-3.018v-26.016c0-1.665 1.336-2.966 2.93-2.966h16.756zM24.301 1.769h-16.704c-0.668 0-1.182 0.572-1.182 1.197v26.016c0 0.676 0.565 1.197 1.182 1.197h16.704c0.668 0 1.182-0.572 1.182-1.197v-26.016c0-0.676-0.565-1.197-1.182-1.197zM21.577 13.893c0.925 0 1.748 0.78 1.748 1.769s-0.771 1.769-1.748 1.769c-0.977 0-1.748-0.78-1.748-1.769s0.771-1.769 1.748-1.769z">
            </path>
        </symbol>

        <symbol id="icon-arrow-right" viewBox="0 0 32 32">
            <path fill="#45525b" style="fill: var(--color1, #45525b)"
                d="M31.133 13.873l-5.795-5.947c-0.795-0.771-2.045-0.771-2.841-0.11-0.795 0.771-0.795 1.982-0.114 2.753l3.295 3.414h-23.634c-1.136 0-2.045 0.881-2.045 1.982s0.909 1.982 2.045 1.982h23.747l-3.295 3.414c-0.795 0.771-0.682 1.983 0.114 2.753 0.341 0.33 0.909 0.551 1.364 0.551 0.568 0 1.023-0.22 1.477-0.551l5.795-5.947c1.023-1.322 1.023-3.084-0.114-4.295z">
            </path>
        </symbol>

        <symbol id="icon-star-empty" viewBox="0 0 32 32">
            <path fill="#52503b" style="fill: var(--color1, #52503b)"
                d="M31.879 12.053c-0.213-0.64-0.747-1.12-1.387-1.227l-8.907-1.387-4-8.427c-0.32-0.64-0.907-1.013-1.6-1.013s-1.28 0.373-1.547 1.013l-4 8.48-8.96 1.44c-0.64 0.107-1.173 0.587-1.387 1.227s-0.053 1.387 0.427 1.867l6.453 6.613-1.493 9.227c-0.107 0.693 0.16 1.387 0.747 1.813 0.32 0.213 0.64 0.32 0.96 0.32 0.267 0 0.587-0.053 0.8-0.213l8-4.373 7.947 4.32c0.587 0.32 1.28 0.267 1.813-0.107 0.587-0.427 0.853-1.12 0.747-1.813l-1.493-9.28 6.453-6.613c0.48-0.48 0.64-1.227 0.427-1.867zM30.653 13.173l-6.4 6.613c-0.213 0.213-0.32 0.587-0.267 0.907l1.493 9.28c0.053 0.373-0.107 0.64-0.32 0.747-0.107 0.053-0.373 0.213-0.693 0.053l-8-4.32c-0.32-0.16-0.64-0.16-0.96 0l-8 4.373c-0.32 0.16-0.587 0.053-0.693-0.053-0.16-0.107-0.373-0.427-0.32-0.747l1.547-9.227c0.053-0.32-0.053-0.693-0.267-0.907l-6.453-6.613c-0.267-0.267-0.267-0.587-0.213-0.8 0.107-0.267 0.267-0.427 0.533-0.48l8.96-1.44c0.32-0.053 0.64-0.267 0.747-0.587l4-8.48c0.16-0.267 0.373-0.427 0.64-0.427s0.48 0.16 0.587 0.427l4 8.48c0.16 0.32 0.427 0.533 0.747 0.587l8.907 1.387c0.267 0.053 0.48 0.213 0.533 0.48 0.16 0.16 0.16 0.533-0.107 0.747z">
            </path>
        </symbol>

        <symbol id="icon-star" viewBox="0 0 32 32">
            <path fill="#52503b" style="fill: var(--color1, #52503b)"
                d="M31.276 11.537l-9.991-1.546-4.526-9.494c-0.331-0.662-1.214-0.662-1.546 0l-4.526 9.55-9.936 1.49c-0.718 0.11-0.994 1.049-0.442 1.546l7.231 7.452-1.711 10.433c-0.11 0.718 0.607 1.325 1.27 0.883l8.998-4.913 8.942 4.913c0.607 0.331 1.38-0.221 1.214-0.883l-1.711-10.433 7.231-7.452c0.442-0.497 0.221-1.435-0.497-1.546z">
            </path>
        </symbol>

        <symbol id="icon-facebook" viewBox="0 0 32 32">
            <path
                d="M30.194 0h-28.387c-1.032 0-1.806 0.826-1.806 1.806v28.387c0 1.032 0.826 1.806 1.806 1.806h15.277v-12.439h-4.129v-4.8h4.129v-3.561c0-4.129 2.477-6.4 6.194-6.4 1.239 0 2.477 0.052 3.716 0.206v4.284h-2.477c-1.961 0-2.374 0.929-2.374 2.323v3.045h4.697l-0.671 4.852h-4.129v12.284h8.155c1.032 0 1.806-0.774 1.806-1.807v-28.181c-0.052-1.032-0.877-1.806-1.806-1.806z">
            </path>
        </symbol>

        <symbol id="icon-in" viewBox="0 0 32 32">
            <path
                d="M29.763 0h-27.43c-1.296 0-2.333 1.032-2.333 2.323v27.355c0 1.239 1.037 2.323 2.333 2.323h27.326c1.296 0 2.333-1.032 2.333-2.323v-27.407c0.104-1.239-0.933-2.271-2.23-2.271zM9.489 27.2h-4.719v-15.226h4.719v15.226zM7.104 9.858c-1.556 0-2.748-1.239-2.748-2.735s1.244-2.736 2.748-2.736c1.504 0 2.748 1.239 2.748 2.736s-1.141 2.735-2.748 2.735zM27.378 27.2h-4.719v-7.381c0-1.755-0.052-4.077-2.489-4.077-2.489 0-2.852 1.961-2.852 3.923v7.535h-4.719v-15.226h4.615v2.116h0.052c0.674-1.239 2.178-2.477 4.511-2.477 4.822 0 5.704 3.097 5.704 7.329v8.258h-0.104z">
            </path>
        </symbol>

        <symbol id="icon-insta" viewBox="0 0 32 32">
            <path
                d="M18.526 0.001c2.197 0.004 2.824 0.023 4.21 0.102 1.757 0.052 2.894 0.31 3.927 0.723s1.912 0.929 2.79 1.806c0.878 0.877 1.447 1.755 1.809 2.839s0.672 2.271 0.723 3.923c0.052 1.755-0.052 2.323-0.052 6.71l-0 2.208c-0 0.101-0 0.199-0 0.294l-0.001 0.536c-0.003 1.761-0.014 2.36-0.050 3.516-0.052 1.755-0.362 2.89-0.723 3.923s-0.93 1.961-1.809 2.839c-0.878 0.877-1.757 1.445-2.842 1.806s-2.17 0.671-3.927 0.723c-0.469 0.014-0.845 0.024-1.229 0.031l-0.291 0.005c-0.492 0.008-1.033 0.011-1.818 0.013l-0.501 0.001c-0.089 0-0.181 0-0.276 0l-4.705-0c-2.424-0.003-3.003-0.020-4.408-0.102-1.757-0.052-2.894-0.361-3.927-0.723s-1.964-0.929-2.842-1.806-1.447-1.755-1.809-2.839c-0.362-1.084-0.672-2.168-0.723-3.923-0.010-0.351-0.019-0.65-0.025-0.94l-0.009-0.432c-0.008-0.483-0.013-0.997-0.015-1.734l-0.001-0.471c-0-0.083-0-0.169-0-0.258l-0-3.598c0.006-3.628 0.054-4.142 0.103-5.78 0.052-1.755 0.31-2.89 0.723-3.923 0.362-1.084 0.93-1.961 1.809-2.839s1.757-1.497 2.842-1.858c1.085-0.361 2.17-0.671 3.927-0.723 1.23-0.036 1.827-0.047 3.581-0.050l5.541-0zM18.79 2.943h-5.439c-1.138 0.002-1.813 0.006-2.426 0.017l-0.28 0.006c-0.324 0.007-0.648 0.016-1.034 0.028-1.602 0.052-2.429 0.361-2.997 0.568-0.723 0.31-1.24 0.619-1.809 1.187-0.517 0.516-0.878 1.084-1.188 1.806-0.207 0.619-0.517 1.445-0.568 2.994-0.012 0.385-0.021 0.709-0.028 1.033l-0.006 0.279c-0.010 0.565-0.014 1.183-0.016 2.169l-0.001 0.813c-0 0.099-0 0.201-0 0.307l-0 8.251c0.052 1.6 0.362 2.426 0.568 2.994 0.362 0.723 0.672 1.239 1.24 1.806 0.517 0.568 1.085 0.929 1.809 1.239 0.62 0.207 1.447 0.516 2.997 0.568 1.14 0.036 1.765 0.047 3.432 0.050l0.826 0.001c0.101 0 0.205 0 0.312 0l8.296 0c1.602-0.052 2.429-0.361 2.997-0.568 0.723-0.361 1.24-0.671 1.809-1.239 0.568-0.516 0.93-1.084 1.24-1.806 0.207-0.619 0.517-1.445 0.568-2.994 0.010-0.33 0.021-0.615 0.031-0.894l0.010-0.278c0.035-1.023 0.063-2.138 0.063-5.28l-0-2.157c-0-0.099-0-0.195-0-0.288l-0.001-0.525c-0.003-1.725-0.014-2.325-0.050-3.481-0.052-1.6-0.362-2.426-0.568-2.994-0.362-0.723-0.672-1.239-1.24-1.806-0.517-0.516-1.085-0.877-1.809-1.187-0.62-0.206-1.447-0.516-2.997-0.568-0.386-0.012-0.71-0.021-1.034-0.028l-0.28-0.006c-0.612-0.011-1.288-0.015-2.426-0.017zM16.019 7.794c4.599 0 8.268 3.613 8.268 8.206s-3.772 8.206-8.268 8.206c-4.495 0-8.216-3.613-8.216-8.206 0-4.49 3.617-8.206 8.216-8.206zM16.019 10.632c-2.945 0-5.374 2.426-5.374 5.368s2.377 5.368 5.374 5.368c2.997 0 5.374-2.374 5.374-5.368s-2.377-5.368-5.374-5.368zM24.648 5.523c1.056 0 1.912 0.855 1.912 1.91s-0.856 1.91-1.912 1.91c-1.056 0-1.912-0.855-1.912-1.91s0.856-1.91 1.912-1.91z">
            </path>
        </symbol>

        <symbol id="icon-twitter" viewBox="0 0 32 32">
            <path
                d="M9.961 29.553c12.181 0 18.787-10.065 18.787-18.787 0-0.206 0-0.568-0.052-0.877 1.29-0.929 2.426-2.116 3.303-3.406-1.239 0.568-2.477 0.877-3.768 1.032 1.394-0.826 2.426-2.116 2.89-3.664-1.29 0.723-2.632 1.29-4.232 1.6-1.239-1.29-2.89-2.116-4.8-2.116-3.664 0-6.658 2.994-6.658 6.658 0 0.516 0.052 1.032 0.155 1.548-5.316-0.361-10.168-2.994-13.471-6.968-0.568 1.032-0.877 2.116-0.877 3.303 0 2.323 1.187 4.284 2.994 5.471-1.084-0.052-2.116-0.361-2.994-0.826 0 0.052 0 0.052 0 0.052 0 3.148 2.271 5.884 5.265 6.503-0.568 0.155-1.187 0.206-1.652 0.206-0.413 0-0.877-0.052-1.239-0.155 0.877 2.632 3.303 4.542 6.194 4.593-2.271 1.755-5.11 2.839-8.155 2.839-0.619 0.103-1.135 0-1.652-0.052 2.787 1.961 6.245 3.045 9.961 3.045z">
            </path>
        </symbol>

        <symbol id="icon-upload" viewBox="0 0 32 32">
            <path
                d="M14 18h4v-8h6l-8-8-8 8h6zM20 13.5v3.085l9.158 3.415-13.158 4.907-13.158-4.907 9.158-3.415v-3.085l-12 4.5v8l16 6 16-6v-8z">
            </path>
        </symbol>
    </defs>
</svg>